<?xml version="1.0" encoding="utf-8"?>
<!-- Generator: Adobe Illustrator 23.0.1, SVG Export Plug-In . SVG Version: 6.00 Build 0)  -->
<svg version="1.1" id="Camada_1" xmlns="http://www.w3.org/2000/svg" xmlns:xlink="http://www.w3.org/1999/xlink" x="0px" y="0px"
	 viewBox="0 0 238.2 187.7" style="enable-background:new 0 0 238.2 187.7;" xml:space="preserve">
<style type="text/css">
	.st0{fill:#79B829;}
</style>
<g>
	<g>
		<path class="st0" d="M196.7,53.4c0.2-3.6-2.4-6.6-5.9-6.8c-3.5-0.2-6.5,2.5-6.7,6c-0.2,3.6,2.4,6.6,5.9,6.8
			C193.5,59.7,196.5,57,196.7,53.4z"/>
		
			<ellipse transform="matrix(6.440155e-02 -0.9979 0.9979 6.440155e-02 101.0893 242.9503)" class="st0" cx="180.1" cy="67.6" rx="5.2" ry="5"/>
		<path class="st0" d="M199.2,61c-4.2-0.3-7.8,3-8,7.2c-0.3,4.3,2.9,7.9,7,8.2c4.2,0.3,7.8-3,8-7.2C206.6,65,203.4,61.3,199.2,61z"
			/>
		<path class="st0" d="M234.7,52.5c-2-0.1-3.8,1.5-4,3.6l-0.3,3.9l-6.4-0.4c-0.3-6.5-2.4-12.6-5.9-17.7l4.8-4.4l2.5,2.9
			c0.7,0.8,1.6,1.2,2.6,1.3c1,0.1,1.9-0.2,2.7-0.9c1.5-1.4,1.7-3.8,0.3-5.4l-10-11.6c-1.4-1.6-3.7-1.7-5.2-0.3
			c-1.5,1.4-1.7,3.8-0.3,5.4l2.5,2.9l-4.8,4.4c-4.5-4.2-10.1-7.1-16.3-8.2l0.4-6.6l3.8,0.2c2,0.1,3.8-1.5,4-3.6
			c0.1-2.1-1.4-3.9-3.5-4l-15.1-1c-2-0.1-3.8,1.5-4,3.6c-0.1,2.1,1.4,3.9,3.5,4l3.8,0.2l-0.4,6.6c-6.4,0.3-12.3,2.5-17.3,6.1
			l-4.2-4.9l2.9-2.6c1.5-1.4,1.7-3.8,0.3-5.4c-1.4-1.6-3.7-1.7-5.2-0.3l-11.4,10.2c-1.5,1.4-1.7,3.8-0.3,5.4
			c0.7,0.8,1.6,1.2,2.6,1.3s1.9-0.2,2.7-0.9l2.9-2.6l4.2,4.9c-4.1,4.6-7,10.4-8.1,16.8l-6.4-0.4l0.3-3.9c0.1-2.1-1.4-3.9-3.5-4
			c-2-0.1-3.8,1.5-4,3.6L144,66c-0.1,2.1,1.4,3.9,3.5,4s3.8-1.5,4-3.6l0.3-3.9l6.4,0.4c0.3,6.5,2.4,12.6,5.9,17.7l-4.8,4.4l-2.5-2.9
			c-1.4-1.6-3.7-1.7-5.2-0.3s-1.7,3.8-0.3,5.4l10,11.6c0.7,0.8,1.6,1.2,2.6,1.3c1,0.1,1.9-0.2,2.7-0.9c1.5-1.4,1.7-3.8,0.3-5.4
			l-2.5-2.9l4.8-4.4c4.5,4.2,10.1,7.1,16.3,8.2l-0.4,6.6l-3.8-0.2c-2-0.1-3.8,1.5-4,3.6c-0.1,2.1,1.4,3.9,3.5,4l15.1,1
			c2,0.1,3.8-1.5,4-3.6c0.1-2.1-1.4-3.9-3.5-4l-3.8-0.2l0.4-6.6c6.4-0.3,12.3-2.5,17.3-6.1l4.2,4.9l-2.9,2.6
			c-1.5,1.4-1.7,3.8-0.3,5.4c0.7,0.8,1.6,1.2,2.6,1.3c1,0.1,1.9-0.2,2.7-0.9L227.6,92c1.5-1.4,1.7-3.8,0.3-5.4
			c-1.4-1.6-3.7-1.7-5.2-0.3l-2.9,2.6l-4.2-4.9c4.1-4.6,7-10.4,8.1-16.8l6.4,0.4l-0.3,3.9c-0.1,2.1,1.4,3.9,3.5,4
			c2,0.1,3.8-1.5,4-3.6l1-15.4C238.3,54.5,236.8,52.7,234.7,52.5z M216.6,63.2c-0.5,7-3.8,13.2-8.6,17.6c0,0-0.1,0.1-0.1,0.1
			c0,0-0.1,0.1-0.1,0.1c-4.9,4.3-11.3,6.8-18.2,6.4c-0.1,0-0.2,0-0.3,0c-0.1,0-0.2,0-0.3,0c-13.9-1-24.4-13.4-23.6-27.7
			c0,0,0-0.1,0-0.1s0-0.1,0-0.1c1-14.3,13.1-25.2,27.1-24.4c0,0,0.1,0,0.1,0c0,0,0.1,0,0.1,0c6.9,0.5,13.1,3.8,17.3,8.7
			c0,0,0.1,0.1,0.1,0.1s0.1,0.1,0.1,0.1c4.2,5,6.6,11.5,6.2,18.6c0,0.1,0,0.2,0,0.3S216.6,63.1,216.6,63.2z"/>
	</g>
	<g>
		<path class="st0" d="M125.2,148.9c-0.9-2.2-3.5-3.3-5.8-2.4c-2.2,0.9-3.3,3.5-2.4,5.8c0.9,2.2,3.5,3.3,5.8,2.4
			C125.1,153.7,126.1,151.1,125.2,148.9z"/>
		<circle class="st0" cx="119.1" cy="162.7" r="3.5"/>
		<path class="st0" d="M129.1,152.7c-2.7,1.1-4,4.2-2.8,6.9c1.1,2.7,4.2,4,6.9,2.8c2.7-1.1,4-4.2,2.8-6.9S131.8,151.6,129.1,152.7z"
			/>
		<path class="st0" d="M148.8,136.4c-1.3,0.6-1.9,2.1-1.4,3.4l1,2.5l-4.1,1.8c-2.2-3.9-5.4-7-9.1-9l1.7-4.2l2.5,1
			c0.7,0.3,1.4,0.2,2,0c0.6-0.3,1.1-0.8,1.4-1.4c0.5-1.3-0.1-2.9-1.4-3.4l-9.8-4c-1.3-0.5-2.9,0.1-3.4,1.4s0.1,2.9,1.4,3.4l2.5,1
			l-1.7,4.2c-4.1-1.2-8.5-1.2-12.8,0.1l-1.8-4.2l2.5-1c1.3-0.6,1.9-2.1,1.4-3.4s-2.1-1.9-3.4-1.4l-9.8,4.1c-1.3,0.6-1.9,2.1-1.4,3.4
			s2.1,1.9,3.4,1.4l2.5-1l1.8,4.1c-3.9,2.2-7,5.4-9,9.1l-4.2-1.7l1-2.5c0.5-1.3-0.1-2.9-1.4-3.4c-1.3-0.5-2.9,0.1-3.4,1.4l-4,9.8
			c-0.5,1.3,0.1,2.9,1.4,3.4c0.7,0.3,1.4,0.2,2,0c0.6-0.3,1.1-0.8,1.4-1.4l1-2.5l4.2,1.7c-1.1,4.1-1.2,8.5,0.1,12.8l-4.1,1.8l-1-2.5
			c-0.6-1.3-2.1-1.9-3.4-1.4s-1.9,2.1-1.4,3.4L96,173c0.6,1.3,2.1,1.9,3.4,1.4s1.9-2.1,1.4-3.4l-1-2.5l4.1-1.8c2.2,3.9,5.4,7,9.1,9
			l-1.7,4.2l-2.5-1c-1.3-0.5-2.9,0.1-3.4,1.4s0.1,2.9,1.4,3.4l9.8,4c0.7,0.3,1.4,0.2,2,0s1.1-0.8,1.4-1.4c0.5-1.3-0.1-2.9-1.4-3.4
			l-2.5-1l1.7-4.2c4.1,1.2,8.5,1.2,12.8-0.1l1.8,4.1l-2.5,1c-1.3,0.6-1.9,2.1-1.4,3.4s2.1,1.9,3.4,1.4l9.8-4.1
			c1.3-0.6,1.9-2.1,1.4-3.4s-2.1-1.9-3.4-1.4l-2.5,1l-1.8-4.1c3.9-2.2,7-5.4,9-9.1l4.2,1.7l-1,2.5c-0.5,1.3,0.1,2.9,1.4,3.4
			c0.7,0.3,1.4,0.2,2,0c0.6-0.3,1.1-0.8,1.4-1.4l4-9.8c0.5-1.3-0.1-2.9-1.4-3.4c-1.3-0.5-2.9,0.1-3.4,1.4l-1,2.5l-4.2-1.7
			c1.1-4.1,1.2-8.5-0.1-12.8l4.1-1.8l1,2.5c0.6,1.3,2.1,1.9,3.4,1.4s1.9-2.1,1.4-3.4l-4.1-9.8C151.6,136.5,150.1,135.9,148.8,136.4z
			 M140.7,148.6c1.8,4.5,1.7,9.3,0,13.5c0,0,0,0.1,0,0.1c0,0,0,0.1,0,0.1c-1.7,4.2-5,7.7-9.4,9.6c-0.1,0-0.1,0-0.2,0.1
			c-0.1,0-0.1,0.1-0.2,0.1c-9.1,3.7-19.5-0.5-23.3-9.5c0,0,0-0.1,0-0.1c0,0,0-0.1,0-0.1c-3.8-9.1,0.5-19.5,9.5-23.4c0,0,0.1,0,0.1,0
			s0.1,0,0.1,0c4.5-1.9,9.4-1.8,13.6-0.1c0,0,0.1,0,0.1,0c0,0,0.1,0,0.1,0c4.2,1.7,7.7,5,9.6,9.4c0,0.1,0,0.1,0.1,0.2
			C140.7,148.5,140.7,148.6,140.7,148.6z"/>
	</g>
	<g>
		<path class="st0" d="M66.8,52.1c-2.1-4.4-7.4-6.2-11.7-4.1c-4.4,2.1-6.2,7.4-4.1,11.7c2.1,4.4,7.4,6.2,11.7,4.1
			C67,61.8,68.9,56.5,66.8,52.1z"/>
		<circle class="st0" cx="56.1" cy="80.2" r="7"/>
		<path class="st0" d="M75,59.4c-5.3,2.5-7.5,8.8-4.9,14.1s8.8,7.5,14.1,4.9c5.2-2.5,7.5-8.8,4.9-14.1C86.5,59.1,80.2,56.9,75,59.4z
			"/>
		<path class="st0" d="M112.5,25.1c-2.6,1.2-3.7,4.3-2.4,6.9l2.3,4.8l-8.1,3.9c-4.7-7.5-11.4-13.3-19-17l3-8.5l5,1.8
			c1.4,0.5,2.8,0.4,4-0.2c1.2-0.6,2.2-1.6,2.6-3c0.9-2.7-0.5-5.7-3.2-6.6l-19.9-7c-2.7-0.9-5.7,0.5-6.6,3.2
			c-0.9,2.7,0.5,5.7,3.2,6.6l5,1.8l-3,8.5c-8.2-1.9-17-1.5-25.4,1.4l-3.9-8.1l4.8-2.3c2.6-1.2,3.7-4.3,2.4-6.9
			c-1.2-2.6-4.3-3.7-6.9-2.4l-19,9.1c-2.6,1.2-3.7,4.3-2.4,6.9s4.3,3.7,6.9,2.4l4.8-2.3l3.9,8.1c-7.5,4.7-13.3,11.4-17,19l-8.5-3
			l1.8-5c0.9-2.7-0.5-5.7-3.2-6.6c-2.7-0.9-5.7,0.5-6.6,3.2l-7,19.9c-0.9,2.7,0.5,5.7,3.2,6.6c1.4,0.5,2.8,0.4,4-0.2
			c1.2-0.6,2.2-1.6,2.6-3l1.8-5l8.5,3c-1.9,8.2-1.5,17,1.4,25.4l-8.1,3.9l-2.3-4.8C10.1,77,7,75.9,4.4,77.1S0.7,81.5,2,84l9.1,19
			c1.2,2.6,4.3,3.7,6.9,2.4s3.7-4.3,2.4-6.9l-2.3-4.8l8.1-3.9c4.7,7.5,11.4,13.3,19,17l-3,8.5l-5-1.8c-2.7-0.9-5.7,0.5-6.6,3.2
			s0.5,5.7,3.2,6.6l19.9,7c1.4,0.5,2.8,0.4,4-0.2c1.2-0.6,2.2-1.6,2.6-3c0.9-2.7-0.5-5.7-3.2-6.6l-5-1.8l3-8.5
			c8.2,1.9,17,1.5,25.4-1.4l3.9,8.1l-4.8,2.3c-2.6,1.2-3.7,4.3-2.4,6.9s4.3,3.7,6.9,2.4l19-9.1c2.6-1.2,3.7-4.3,2.4-6.9
			s-4.3-3.7-6.9-2.4l-4.8,2.3l-3.9-8.1c7.5-4.7,13.3-11.4,17-19l8.5,3l-1.8,5c-0.9,2.7,0.5,5.7,3.2,6.6c1.4,0.5,2.8,0.4,4-0.2
			c1.2-0.6,2.2-1.6,2.6-3l7-19.9c0.9-2.7-0.5-5.7-3.2-6.6c-2.7-0.9-5.7,0.5-6.6,3.2l-1.8,5l-8.5-3c1.9-8.2,1.5-17-1.4-25.4l8.1-3.9
			l2.3,4.8c1.2,2.6,4.3,3.7,6.9,2.4c2.6-1.2,3.7-4.3,2.4-6.9l-9.1-19C118.2,24.9,115.1,23.8,112.5,25.1z M97.7,50.2
			c4.1,8.7,4.3,18.3,1.4,26.8c0,0.1,0,0.1-0.1,0.2s0,0.1-0.1,0.2c-3,8.5-9.2,15.8-17.8,20c-0.1,0-0.2,0.1-0.4,0.1s-0.2,0.1-0.3,0.2
			c-17.6,8.3-38.7,0.8-47.3-16.7c0-0.1,0-0.1-0.1-0.2c0-0.1-0.1-0.1-0.1-0.2c-8.4-17.7-1-38.9,16.6-47.4c0.1,0,0.1,0,0.2-0.1
			s0.1-0.1,0.1-0.1c8.8-4.2,18.4-4.4,27-1.5c0.1,0,0.1,0,0.2,0.1s0.1,0,0.2,0.1c8.4,3,15.8,9.2,20,17.8c0,0.1,0.1,0.3,0.2,0.4
			C97.5,49.9,97.6,50,97.7,50.2z"/>
	</g>
</g>
</svg>
