<?xml version="1.0" encoding="iso-8859-1"?>
<!-- Generator: Adobe Illustrator 23.0.1, SVG Export Plug-In . SVG Version: 6.00 Build 0)  -->
<svg version="1.1" id="Camada_1" xmlns="http://www.w3.org/2000/svg" xmlns:xlink="http://www.w3.org/1999/xlink" x="0px" y="0px"
	 viewBox="0 0 595.276 841.89" style="enable-background:new 0 0 595.276 841.89;" xml:space="preserve">
<g>
</g>
<g>
</g>
<g>
</g>
<g>
</g>
<g>
</g>
<g>
</g>
<g>
</g>
<g>
</g>
<g>
</g>
<g>
</g>
<g>
</g>
<g>
</g>
<g>
</g>
<g>
</g>
<g>
</g>
<g>
</g>
<g>
</g>
<g>
</g>
<g>
</g>
<g>
</g>
<g>
</g>
<g>
</g>
<g>
</g>
<g>
</g>
<g>
</g>
<g>
</g>
<g>
</g>
<g>
</g>
<g>
</g>
<g>
</g>
<g>
</g>
<g>
</g>
<g>
</g>
<g>
</g>
<g>
</g>
<g>
</g>
<g>
</g>
<g>
</g>
<g>
</g>
<g>
</g>
<g>
</g>
<g>
</g>
<g>
</g>
<g>
</g>
<g>
</g>
<g>
</g>
<g>
</g>
<g>
</g>
<g>
</g>
<g>
</g>
<g>
</g>
<g>
</g>
<g>
</g>
<g>
</g>
<g>
</g>
<g>
</g>
<g>
</g>
<g>
</g>
<g>
</g>
<g>
</g>
<g>
	<path style="fill:#E61F41;" d="M256.358,631.684c-4.98,0-9.611-2.574-12.239-6.809L106.908,403.762
		c-16.882-27.264-25.802-58.691-25.802-90.893c0-95.31,77.541-172.852,172.852-172.852S426.81,217.558,426.81,312.868
		c0,31.247-8.43,61.869-24.381,88.558L268.716,624.68c-2.581,4.31-7.221,6.963-12.244,7.002
		C256.434,631.684,256.396,631.684,256.358,631.684z M253.958,168.825c-79.425,0-144.043,64.618-144.043,144.043
		c0,26.84,7.427,53.021,21.48,75.715L256.141,589.61l121.567-202.974c13.273-22.211,20.294-47.723,20.294-73.767
		C398.001,233.443,333.383,168.825,253.958,168.825z"/>
	<path style="fill:#E61F41;" d="M253.958,389.66c-29.245,0-55.928-14.882-71.378-39.807c-8.149-13.176-12.453-28.395-12.453-44.023
		c0-46.224,37.606-83.83,83.83-83.83s83.83,37.606,83.83,83.83c0,15.168-4.071,30.001-11.773,42.898
		C310.695,374.36,283.759,389.66,253.958,389.66z M253.594,236.644c-38.749,0-70.274,31.525-70.274,70.274
		c0,13.118,3.594,25.863,10.395,36.858c12.965,20.918,35.353,33.415,59.879,33.415c24.99,0,47.586-12.842,60.443-34.353
		c6.43-10.767,9.83-23.19,9.83-35.92C323.867,268.168,292.342,236.644,253.594,236.644z"/>
</g>
<circle style="fill:#FFFFFF;" cx="342.375" cy="480.867" r="83.65"/>
<g>
	<path style="fill:#79B829;" d="M418.967,447.906c0.229-3.556-2.399-6.619-5.87-6.843c-3.47-0.224-6.47,2.477-6.699,6.032
		c-0.229,3.557,2.399,6.621,5.869,6.845C415.738,454.164,418.738,451.464,418.967,447.906z"/>
	
		<ellipse transform="matrix(0.0644 -0.9979 0.9979 0.0644 -84.5789 833.8534)" style="fill:#79B829;" cx="402.39" cy="462.031" rx="5.162" ry="5.038"/>
	<path style="fill:#79B829;" d="M421.524,455.506c-4.167-0.269-7.764,2.972-8.039,7.24c-0.275,4.269,2.876,7.945,7.043,8.213
		c4.164,0.269,7.763-2.972,8.038-7.241C428.841,459.451,425.687,455.774,421.524,455.506z"/>
	<path style="fill:#79B829;" d="M457.018,447.035c-2.049-0.132-3.821,1.463-3.956,3.563l-0.253,3.918l-6.405-0.413
		c-0.293-6.513-2.413-12.592-5.87-17.674l4.841-4.36l2.525,2.945c0.676,0.789,1.603,1.222,2.552,1.283
		c0.95,0.061,1.923-0.249,2.696-0.945c1.545-1.391,1.7-3.798,0.347-5.377l-9.952-11.606c-1.353-1.579-3.703-1.73-5.248-0.338
		c-1.545,1.391-1.7,3.798-0.347,5.377l2.525,2.944l-4.841,4.361c-4.474-4.166-10.084-7.1-16.348-8.235l0.423-6.565l3.824,0.247
		c2.049,0.132,3.821-1.463,3.956-3.563c0.135-2.1-1.416-3.909-3.466-4.042l-15.071-0.972c-2.049-0.132-3.821,1.463-3.956,3.563
		c-0.135,2.1,1.416,3.909,3.466,4.042l3.824,0.247l-0.423,6.564c-6.359,0.321-12.299,2.511-17.272,6.068l-4.242-4.947l2.883-2.596
		c1.545-1.391,1.7-3.799,0.347-5.377c-1.353-1.579-3.703-1.73-5.248-0.338l-11.36,10.232c-1.545,1.391-1.7,3.799-0.347,5.377
		c0.676,0.789,1.603,1.222,2.552,1.283s1.923-0.249,2.696-0.945l2.883-2.596l4.242,4.947c-4.081,4.596-6.963,10.352-8.091,16.773
		l-6.406-0.413l0.253-3.917c0.135-2.1-1.416-3.909-3.466-4.042c-2.049-0.132-3.821,1.463-3.956,3.563l-0.996,15.439
		c-0.135,2.1,1.416,3.909,3.466,4.042s3.821-1.463,3.956-3.563l0.253-3.918l6.406,0.413c0.294,6.513,2.413,12.591,5.869,17.673
		l-4.842,4.361l-2.525-2.945c-1.353-1.579-3.703-1.73-5.248-0.338s-1.7,3.798-0.347,5.377l9.952,11.606
		c0.676,0.789,1.603,1.222,2.552,1.283c0.95,0.061,1.923-0.249,2.696-0.945c1.545-1.391,1.7-3.798,0.347-5.377l-2.525-2.945
		l4.842-4.361c4.474,4.166,10.084,7.1,16.349,8.235l-0.423,6.564l-3.824-0.247c-2.049-0.132-3.821,1.463-3.956,3.563
		c-0.135,2.1,1.416,3.909,3.466,4.042L417.865,504c2.049,0.132,3.821-1.463,3.956-3.563c0.135-2.1-1.416-3.909-3.466-4.042
		l-3.823-0.247l0.423-6.564c6.359-0.321,12.298-2.51,17.271-6.067l4.241,4.946l-2.882,2.596c-1.545,1.391-1.7,3.798-0.347,5.377
		c0.676,0.789,1.603,1.222,2.552,1.283c0.95,0.061,1.923-0.249,2.696-0.945l11.36-10.23c1.545-1.391,1.7-3.798,0.347-5.377
		c-1.353-1.579-3.703-1.73-5.248-0.338l-2.883,2.596l-4.241-4.946c4.082-4.596,6.964-10.352,8.092-16.773l6.404,0.413l-0.253,3.917
		c-0.135,2.1,1.416,3.909,3.466,4.042c2.049,0.132,3.821-1.463,3.956-3.563l0.996-15.439
		C460.62,448.976,459.068,447.167,457.018,447.035z M438.925,457.74c-0.533,7.043-3.753,13.249-8.561,17.623
		c-0.034,0.028-0.069,0.053-0.102,0.083c-0.033,0.029-0.061,0.062-0.093,0.092c-4.855,4.328-11.282,6.803-18.173,6.434
		c-0.091-0.012-0.181-0.026-0.273-0.032c-0.093-0.006-0.184-0.004-0.275-0.003c-13.903-1.049-24.436-13.378-23.587-27.655
		c0.004-0.046,0.013-0.091,0.016-0.137c0.003-0.046,0.001-0.092,0.002-0.137c0.997-14.32,13.109-25.224,27.097-24.39
		c0.04,0.004,0.08,0.011,0.12,0.014c0.041,0.003,0.081,0,0.122,0.002c6.945,0.481,13.058,3.776,17.348,8.728
		c0.028,0.035,0.052,0.071,0.081,0.105c0.029,0.034,0.061,0.064,0.091,0.096c4.206,4.955,6.602,11.523,6.225,18.576
		c-0.014,0.099-0.028,0.198-0.034,0.299S438.924,457.64,438.925,457.74z"/>
</g>
<g>
	<path style="fill:#79B829;" d="M347.448,543.351c-0.949-2.248-3.54-3.3-5.789-2.351c-2.247,0.949-3.301,3.54-2.352,5.788
		c0.949,2.249,3.541,3.301,5.789,2.352C347.344,548.191,348.397,545.599,347.448,543.351z"/>
	<circle style="fill:#79B829;" cx="341.38" cy="557.182" r="3.535"/>
	<path style="fill:#79B829;" d="M351.388,547.201c-2.699,1.139-3.962,4.248-2.822,6.946c1.139,2.698,4.248,3.962,6.946,2.823
		c2.697-1.138,3.961-4.248,2.822-6.946C357.195,547.326,354.085,546.063,351.388,547.201z"/>
	<path style="fill:#79B829;" d="M371.071,530.911c-1.327,0.56-1.949,2.091-1.389,3.418l1.046,2.477l-4.148,1.751
		c-2.186-3.894-5.385-6.951-9.118-8.979l1.699-4.183l2.491,1.012c0.667,0.271,1.382,0.246,1.997-0.013
		c0.615-0.26,1.131-0.754,1.402-1.422c0.542-1.335-0.1-2.857-1.435-3.399l-9.816-3.988c-1.335-0.543-2.857,0.1-3.399,1.435
		c-0.542,1.335,0.1,2.857,1.435,3.399l2.49,1.012l-1.699,4.183c-4.09-1.15-8.514-1.19-12.796,0.076l-1.752-4.15l2.477-1.046
		c1.327-0.56,1.949-2.091,1.389-3.418s-2.091-1.949-3.418-1.389l-9.761,4.121c-1.327,0.56-1.949,2.091-1.389,3.418
		c0.56,1.327,2.091,1.949,3.418,1.389l2.477-1.046l1.752,4.149c-3.894,2.186-6.951,5.385-8.979,9.118l-4.184-1.7l1.012-2.491
		c0.542-1.335-0.1-2.857-1.435-3.399c-1.335-0.543-2.857,0.1-3.399,1.435l-3.988,9.816c-0.542,1.335,0.1,2.857,1.435,3.399
		c0.667,0.271,1.382,0.246,1.997-0.013c0.615-0.26,1.131-0.754,1.402-1.422l1.012-2.491l4.184,1.7
		c-1.15,4.09-1.19,8.514,0.075,12.796l-4.149,1.752l-1.045-2.476c-0.56-1.327-2.091-1.949-3.418-1.389
		c-1.327,0.56-1.949,2.091-1.389,3.418l4.12,9.76c0.56,1.327,2.091,1.949,3.418,1.389c1.327-0.56,1.949-2.091,1.389-3.418
		l-1.046-2.477l4.149-1.752c2.186,3.894,5.385,6.95,9.117,8.979l-1.7,4.184l-2.491-1.012c-1.335-0.543-2.857,0.1-3.399,1.435
		c-0.542,1.335,0.1,2.857,1.435,3.399l9.816,3.988c0.667,0.271,1.382,0.246,1.997-0.013s1.131-0.754,1.402-1.422
		c0.542-1.335-0.1-2.857-1.435-3.399l-2.491-1.012l1.7-4.184c4.09,1.15,8.514,1.19,12.796-0.076l1.752,4.149l-2.477,1.046
		c-1.327,0.56-1.949,2.091-1.389,3.418c0.56,1.327,2.091,1.949,3.418,1.389l9.76-4.12c1.327-0.56,1.949-2.091,1.389-3.418
		c-0.56-1.327-2.091-1.949-3.418-1.389l-2.476,1.045l-1.752-4.149c3.894-2.186,6.95-5.384,8.979-9.117l4.183,1.7l-1.012,2.49
		c-0.542,1.335,0.1,2.857,1.435,3.399c0.667,0.271,1.382,0.246,1.997-0.013c0.615-0.26,1.131-0.754,1.402-1.422l3.988-9.815
		c0.542-1.335-0.1-2.857-1.435-3.399c-1.335-0.543-2.857,0.1-3.399,1.435l-1.012,2.491l-4.183-1.7
		c1.15-4.09,1.191-8.514-0.075-12.797l4.148-1.751l1.045,2.476c0.56,1.327,2.091,1.949,3.418,1.389
		c1.327-0.56,1.949-2.091,1.389-3.418l-4.12-9.76C373.929,530.972,372.398,530.351,371.071,530.911z M363.001,543.124
		c1.83,4.477,1.716,9.282,0.042,13.464c-0.012,0.028-0.027,0.054-0.038,0.082c-0.011,0.028-0.019,0.057-0.03,0.086
		c-1.718,4.168-4.993,7.693-9.433,9.624c-0.061,0.021-0.121,0.041-0.181,0.066c-0.06,0.025-0.117,0.055-0.173,0.084
		c-9.052,3.708-19.454-0.541-23.309-9.544c-0.011-0.03-0.02-0.06-0.032-0.089c-0.012-0.029-0.028-0.056-0.041-0.085
		c-3.776-9.075,0.478-19.538,9.517-23.404c0.027-0.01,0.054-0.018,0.08-0.029c0.026-0.011,0.051-0.025,0.077-0.037
		c4.508-1.878,9.359-1.775,13.575-0.087c0.028,0.013,0.055,0.027,0.083,0.039c0.029,0.012,0.058,0.02,0.087,0.031
		c4.164,1.716,7.687,4.986,9.618,9.42c0.022,0.065,0.044,0.13,0.07,0.194C362.938,543.002,362.97,543.063,363.001,543.124z"/>
</g>
<g>
	<path style="fill:#79B829;" d="M289.043,446.625c-2.106-4.375-7.359-6.213-11.735-4.107c-4.374,2.105-6.215,7.359-4.11,11.733
		c2.107,4.377,7.361,6.215,11.735,4.11C289.309,456.255,291.15,451.002,289.043,446.625z"/>
	<circle style="fill:#79B829;" cx="278.335" cy="474.708" r="7.034"/>
	<path style="fill:#79B829;" d="M297.252,453.893c-5.253,2.528-7.459,8.83-4.931,14.082c2.528,5.252,8.83,7.46,14.083,4.932
		c5.249-2.526,7.457-8.83,4.93-14.082C308.805,453.574,302.501,451.367,297.252,453.893z"/>
	<path style="fill:#79B829;" d="M334.782,419.592c-2.584,1.243-3.67,4.346-2.427,6.93l2.32,4.821l-8.074,3.886
		c-4.726-7.526-11.382-13.289-19.001-16.956l2.969-8.48l5.05,1.768c1.353,0.474,2.77,0.354,3.967-0.222
		c1.198-0.576,2.175-1.609,2.648-2.962c0.948-2.706-0.478-5.668-3.184-6.616l-19.899-6.968c-2.707-0.948-5.669,0.478-6.616,3.184
		c-0.948,2.706,0.478,5.668,3.184,6.616l5.049,1.768l-2.969,8.481c-8.241-1.885-17.038-1.533-25.426,1.401l-3.888-8.077l4.821-2.32
		c2.584-1.243,3.67-4.346,2.427-6.93c-1.243-2.584-4.346-3.67-6.93-2.427l-18.999,9.144c-2.584,1.243-3.67,4.346-2.427,6.93
		s4.346,3.67,6.93,2.427l4.821-2.32l3.887,8.076c-7.526,4.726-13.289,11.382-16.957,19l-8.482-2.971l1.768-5.05
		c0.948-2.706-0.478-5.669-3.184-6.616c-2.707-0.948-5.669,0.478-6.616,3.184l-6.967,19.901c-0.948,2.706,0.478,5.669,3.184,6.616
		c1.353,0.474,2.77,0.354,3.967-0.222c1.197-0.576,2.175-1.609,2.648-2.962l1.768-5.05l8.482,2.97
		c-1.886,8.241-1.534,17.038,1.4,25.426l-8.075,3.887l-2.319-4.819c-1.243-2.584-4.346-3.67-6.93-2.427
		c-2.584,1.243-3.67,4.346-2.427,6.93l9.143,18.997c1.243,2.584,4.346,3.67,6.93,2.427s3.67-4.346,2.427-6.93l-2.32-4.821
		l8.076-3.887c4.726,7.525,11.382,13.288,18.999,16.956l-2.97,8.482l-5.05-1.768c-2.707-0.948-5.669,0.478-6.616,3.184
		s0.478,5.668,3.184,6.616l19.899,6.968c1.353,0.474,2.77,0.354,3.967-0.222c1.197-0.576,2.175-1.609,2.648-2.962
		c0.948-2.706-0.478-5.668-3.184-6.616l-5.05-1.768l2.97-8.483c8.241,1.885,17.038,1.533,25.427-1.401l3.887,8.076l-4.821,2.32
		c-2.584,1.244-3.67,4.346-2.427,6.93s4.346,3.67,6.93,2.427l18.997-9.143c2.584-1.243,3.67-4.346,2.427-6.93
		s-4.346-3.67-6.93-2.427l-4.819,2.319l-3.887-8.076c7.526-4.725,13.289-11.38,16.956-18.997l8.481,2.97l-1.768,5.049
		c-0.948,2.706,0.478,5.668,3.184,6.616c1.353,0.474,2.77,0.354,3.967-0.222c1.197-0.576,2.175-1.609,2.648-2.962l6.968-19.898
		c0.948-2.706-0.478-5.668-3.184-6.616c-2.707-0.948-5.669,0.478-6.616,3.184l-1.768,5.05l-8.481-2.97
		c1.887-8.242,1.535-17.039-1.399-25.427l8.073-3.886l2.32,4.82c1.243,2.584,4.346,3.67,6.93,2.427
		c2.584-1.243,3.67-4.346,2.427-6.93l-9.143-18.997C340.468,419.435,337.365,418.348,334.782,419.592z M319.935,444.654
		c4.075,8.72,4.318,18.282,1.398,26.756c-0.022,0.057-0.048,0.11-0.068,0.167c-0.02,0.057-0.033,0.115-0.051,0.173
		c-3.008,8.452-9.172,15.779-17.809,20.05c-0.119,0.047-0.237,0.093-0.354,0.149c-0.117,0.056-0.226,0.12-0.337,0.183
		c-17.629,8.255-38.72,0.826-47.262-16.692c-0.025-0.058-0.045-0.116-0.073-0.173c-0.027-0.057-0.06-0.109-0.09-0.164
		c-8.391-17.669-0.959-38.881,16.629-47.448c0.052-0.023,0.105-0.041,0.156-0.066s0.099-0.055,0.149-0.081
		c8.777-4.174,18.429-4.442,26.973-1.499c0.058,0.022,0.111,0.049,0.169,0.069c0.058,0.02,0.117,0.033,0.176,0.052
		c8.444,3.005,15.765,9.159,20.037,17.784c0.049,0.127,0.099,0.254,0.159,0.378C319.797,444.417,319.867,444.536,319.935,444.654z"
		/>
</g>
<g>
	<g>
		<g>
			<path style="fill:#3A3F47;" d="M421.875,479.648c0-44.216-35.849-80.067-80.066-80.067c-44.216,0-80.067,35.851-80.067,80.067
				s35.851,80.065,80.067,80.065C386.025,559.713,421.875,523.864,421.875,479.648z M341.808,539.696
				c-33.114,0-60.05-26.934-60.05-60.048s26.936-60.05,60.05-60.05c33.113,0,60.051,26.936,60.051,60.05
				S374.921,539.696,341.808,539.696z"/>
		</g>
		<path style="fill:#3A3F47;" d="M452.709,567.763l-39.94-37.084c-5.951,8.593-13.827,15.901-23.082,21.426l39.944,37.084
			c6.377,5.919,16.716,5.919,23.079,0C459.086,583.28,459.086,573.681,452.709,567.763z"/>
	</g>
	<g>
	</g>
	<g>
	</g>
	<g>
	</g>
	<g>
	</g>
	<g>
	</g>
	<g>
	</g>
	<g>
	</g>
	<g>
	</g>
	<g>
	</g>
	<g>
	</g>
	<g>
	</g>
	<g>
	</g>
	<g>
	</g>
	<g>
	</g>
	<g>
	</g>
</g>
</svg>
